<svg id="Layer_1" data-name="Layer 1" xmlns="http://www.w3.org/2000/svg" viewBox="0 0 32 32"><defs><style>.cls-1{fill:#231f20;}</style></defs><path class="cls-1" d="M19.45,6.69c-4.92,1.16-8.43,8.65-8.17,7.47a63.58,63.58,0,0,0,0-7C5.62,12.74,4.16,30.34,4.16,30.34l7.37-8s9.62,7.88,13.37-1.79S24.36,5.54,19.45,6.69ZM19,20s-2.75,1.58-3.74-1.32c0,0,2.26-6.15,5.43-9.49,0,0,.47-1.08.93.9S22.19,17.25,19,20Z"/><rect class="cls-1" x="22.09" y="1.91" width="3.28" height="3.28" transform="translate(-0.26 3.9) rotate(-9.35)"/></svg>